<svg xmlns="http://www.w3.org/2000/svg" viewBox="0 0 360 200" role="img" aria-labelledby="title desc"><title id="title">abhor · 图像助记</title><desc id="desc">面对屏幕里令人强烈反感的画面，人的上身后缩，椅子也猛然后退。</desc><defs><marker id="arr" viewBox="0 0 10 10" refX="8" refY="5" markerWidth="5" markerHeight="5" orient="auto-start-reverse"><path d="M1 1L9 5 1 9" fill="none" stroke="#c7954b" stroke-width="1.7" stroke-linecap="round" stroke-linejoin="round"/></marker></defs><rect width="360" height="200" rx="16" fill="#f6f5f1"/><rect x="240" y="44" width="90" height="71" rx="7" fill="#dce9df" stroke="#173d36" stroke-width="2"/><path d="M265 66l18 10 13-14M269 93l28-5" fill="none" stroke="#a4543f" stroke-width="3" stroke-linecap="round" stroke-linejoin="round" /><path d="M257 56L314 103" fill="none" stroke="#a4543f" stroke-width="3" stroke-linecap="round" stroke-linejoin="round" /><path d="M265 131H307M286 115V131" fill="none" stroke="#7d9486" stroke-width="3" stroke-linecap="round" stroke-linejoin="round" /><circle cx="116" cy="64" r="14" fill="#f6f5f1" stroke="#173d36" stroke-width="2"/><path d="M117 79L130 115 155 118 158 148M126 99L158 83M151 77L159 91" fill="none" stroke="#173d36" stroke-width="4" stroke-linecap="round" stroke-linejoin="round" /><path d="M98 96L108 127H157M112 129V151M149 129V151" fill="none" stroke="#173d36" stroke-width="4" stroke-linecap="round" stroke-linejoin="round" /><circle cx="111" cy="158" r="5" fill="#173d36" stroke="#173d36" stroke-width="2"/><circle cx="152" cy="158" r="5" fill="#173d36" stroke="#173d36" stroke-width="2"/><path d="M216 147L179 147" fill="none" stroke="#c7954b" stroke-width="3" stroke-linecap="round" stroke-linejoin="round" marker-end="url(#arr)"/><path d="M176 66L191 59M177 79H196M174 91L188 98" fill="none" stroke="#c7954b" stroke-width="3" stroke-linecap="round" stroke-linejoin="round" /><text x="106" y="32" fill="#173d36" font-family="Arial, sans-serif" font-size="23" font-weight="600" text-anchor="middle">abhor</text></svg>