<svg xmlns="http://www.w3.org/2000/svg" viewBox="0 0 360 200" role="img" aria-labelledby="title desc"><title id="title">abject · 图像助记</title><desc id="desc">向下到底的刻度旁，一边是几乎空掉的碗，一边是伏低求人的姿态。</desc><defs><marker id="arr" viewBox="0 0 10 10" refX="8" refY="5" markerWidth="5" markerHeight="5" orient="auto-start-reverse"><path d="M1 1L9 5 1 9" fill="none" stroke="#c7954b" stroke-width="1.7" stroke-linecap="round" stroke-linejoin="round"/></marker></defs><rect width="360" height="200" rx="16" fill="#f6f5f1"/><path d="M33 30V162H328" fill="none" stroke="#7d9486" stroke-width="3" stroke-linecap="round" stroke-linejoin="round" /><path d="M33 40L44 40" fill="none" stroke="#7d9486" stroke-width="2" stroke-linecap="round" stroke-linejoin="round" /><path d="M33 66L44 66" fill="none" stroke="#7d9486" stroke-width="2" stroke-linecap="round" stroke-linejoin="round" /><path d="M33 92L44 92" fill="none" stroke="#7d9486" stroke-width="2" stroke-linecap="round" stroke-linejoin="round" /><path d="M33 118L44 118" fill="none" stroke="#7d9486" stroke-width="2" stroke-linecap="round" stroke-linejoin="round" /><path d="M33 144L44 144" fill="none" stroke="#7d9486" stroke-width="2" stroke-linecap="round" stroke-linejoin="round" /><path d="M58 52L58 141" fill="none" stroke="#c7954b" stroke-width="3" stroke-linecap="round" stroke-linejoin="round" marker-end="url(#arr)"/><path d="M86 129Q109 169 135 129Z" fill="#dce9df" stroke="#173d36" stroke-width="3" stroke-linecap="round" stroke-linejoin="round" /><circle cx="109" cy="135" r="2" fill="#c7954b" stroke="none" stroke-width="2"/><text x="113" y="184" fill="#173d36" font-family="Arial, sans-serif" font-size="14" font-weight="600" text-anchor="middle">poverty</text><circle cx="233" cy="118" r="11" fill="#f6f5f1" stroke="#173d36" stroke-width="2"/><path d="M225 128L202 142 219 155H251M226 132L254 151H270" fill="none" stroke="#173d36" stroke-width="4" stroke-linecap="round" stroke-linejoin="round" /><text x="239" y="184" fill="#173d36" font-family="Arial, sans-serif" font-size="14" font-weight="600" text-anchor="middle">submission</text><text x="185" y="46" fill="#173d36" font-family="Arial, sans-serif" font-size="23" font-weight="600" text-anchor="middle">abject</text><path d="M178 73L178 151" fill="none" stroke="#dce9df" stroke-width="2" stroke-linecap="round" stroke-linejoin="round" /></svg>