<svg xmlns="http://www.w3.org/2000/svg" viewBox="0 0 360 200" role="img" aria-labelledby="title desc"><title id="title">abscond · 图像助记</title><desc id="desc">外套还搭在工作椅背上像人仍在岗，真正的人已悄悄从后门溜走。</desc><defs><marker id="arr" viewBox="0 0 10 10" refX="8" refY="5" markerWidth="5" markerHeight="5" orient="auto-start-reverse"><path d="M1 1L9 5 1 9" fill="none" stroke="#c7954b" stroke-width="1.7" stroke-linecap="round" stroke-linejoin="round"/></marker></defs><rect width="360" height="200" rx="16" fill="#f6f5f1"/><rect x="80" y="72" width="43" height="76" rx="6" fill="#dce9df" stroke="#173d36" stroke-width="2"/><rect x="69" y="144" width="68" height="9" rx="3" fill="#dce9df" stroke="#173d36" stroke-width="2"/><path d="M77 153V178M129 153V178" fill="none" stroke="#173d36" stroke-width="3" stroke-linecap="round" stroke-linejoin="round" /><path d="M76 78L91 66 110 66 126 80 141 111 124 117 116 97V139H85V98L74 116 58 111Z" fill="#dce9df" stroke="#173d36" stroke-width="2" stroke-linecap="round" stroke-linejoin="round" /><path d="M91 68L101 84 110 68M101 84V137" fill="none" stroke="#7d9486" stroke-width="2" stroke-linecap="round" stroke-linejoin="round" /><rect x="242" y="30" width="76" height="147" rx="2" fill="#dce9df" stroke="#173d36" stroke-width="2"/><path d="M242 30L289 45V178L242 177Z" fill="#f6f5f1" stroke="#173d36" stroke-width="2" stroke-linecap="round" stroke-linejoin="round" /><circle cx="281" cy="108" r="3" fill="#c7954b" stroke="none" stroke-width="2"/><circle cx="322" cy="91" r="6.3" fill="#f6f5f1" stroke="#173d36" stroke-width="2.5"/><path d="M322 97.93v21.42m-9.45 -12.6l9.45 -4.41 9.45 4.41m-9.45 12.6l-7.5600000000000005 14.49m7.5600000000000005 -14.49l7.5600000000000005 14.49" fill="none" stroke="#173d36" stroke-width="3" stroke-linecap="round" stroke-linejoin="round" /><path d="M184 155Q218 163 238 139" fill="none" stroke="#c7954b" stroke-width="2" stroke-linecap="round" stroke-linejoin="round" stroke-dasharray="3 6" marker-end="url(#arr)"/><text x="98" y="39" fill="#173d36" font-family="Arial, sans-serif" font-size="22" font-weight="600" text-anchor="middle">abscond</text><path d="M330 136l11 5M326 147l10 5" fill="none" stroke="#7d9486" stroke-width="2" stroke-linecap="round" stroke-linejoin="round" /></svg>