<svg xmlns="http://www.w3.org/2000/svg" viewBox="0 0 360 200" role="img" aria-labelledby="title desc"><title id="title">abet · 图像助记</title><desc id="desc">一人伸手取窗内的钱，画面边缘的另一只手扶住梯子，给坏事提供助力。</desc><defs><marker id="arr" viewBox="0 0 10 10" refX="8" refY="5" markerWidth="5" markerHeight="5" orient="auto-start-reverse"><path d="M1 1L9 5 1 9" fill="none" stroke="#c7954b" stroke-width="1.7" stroke-linecap="round" stroke-linejoin="round"/></marker></defs><rect width="360" height="200" rx="16" fill="#f6f5f1"/><rect x="238" y="37" width="88" height="122" rx="3" fill="#dce9df" stroke="#173d36" stroke-width="2"/><rect x="258" y="48" width="53" height="50" rx="3" fill="#f6f5f1" stroke="#173d36" stroke-width="2"/><path d="M268 87V69H300V87Z" fill="#c7954b" stroke="#173d36" stroke-width="3" stroke-linecap="round" stroke-linejoin="round" /><text x="284" y="65" fill="#173d36" font-family="Arial, sans-serif" font-size="15" font-weight="600" text-anchor="middle">$</text><path d="M147 167L212 54M168 173L233 60" fill="none" stroke="#173d36" stroke-width="5" stroke-linecap="round" stroke-linejoin="round" /><path d="M154 153L174 160" fill="none" stroke="#173d36" stroke-width="3" stroke-linecap="round" stroke-linejoin="round" /><path d="M165 134L185 141" fill="none" stroke="#173d36" stroke-width="3" stroke-linecap="round" stroke-linejoin="round" /><path d="M176 115L196 122" fill="none" stroke="#173d36" stroke-width="3" stroke-linecap="round" stroke-linejoin="round" /><path d="M187 96L207 103" fill="none" stroke="#173d36" stroke-width="3" stroke-linecap="round" stroke-linejoin="round" /><path d="M198 77L218 84" fill="none" stroke="#173d36" stroke-width="3" stroke-linecap="round" stroke-linejoin="round" /><circle cx="227" cy="44" r="9" fill="#f6f5f1" stroke="#173d36" stroke-width="2"/><path d="M226 56L236 83 213 98M236 80L265 78M223 89L196 106" fill="none" stroke="#173d36" stroke-width="3" stroke-linecap="round" stroke-linejoin="round" /><path d="M38 130L104 119 137 125 155 115Q163 111 166 118Q166 123 153 131L143 142 105 142 44 155Z" fill="#c7954b" stroke="#173d36" stroke-width="2" stroke-linecap="round" stroke-linejoin="round" /><text x="89" y="53" fill="#173d36" font-family="Arial, sans-serif" font-size="24" font-weight="600" text-anchor="middle">abet</text><path d="M103 82L137 104" fill="none" stroke="#c7954b" stroke-width="3" stroke-linecap="round" stroke-linejoin="round" marker-end="url(#arr)"/></svg>